<?xml version="1.0" encoding="UTF-8" standalone="no"?>
<!-- Generator: Adobe Illustrator 20.1.0, SVG Export Plug-In . SVG Version: 6.00 Build 0)  -->

<svg
   xmlns:dc="http://purl.org/dc/elements/1.1/"
   xmlns:cc="http://creativecommons.org/ns#"
   xmlns:rdf="http://www.w3.org/1999/02/22-rdf-syntax-ns#"
   xmlns:svg="http://www.w3.org/2000/svg"
   xmlns="http://www.w3.org/2000/svg"
   xmlns:sodipodi="http://sodipodi.sourceforge.net/DTD/sodipodi-0.dtd"
   xmlns:inkscape="http://www.inkscape.org/namespaces/inkscape"
   version="1.1"
   id="Layer_1"
   x="0px"
   y="0px"
   viewBox="0 0 188 53"
   style="enable-background:new 0 0 188 53;"
   xml:space="preserve"
   sodipodi:docname="fxcm-blue.svg"
   inkscape:version="0.92.3 (2405546, 2018-03-11)"><metadata
   id="metadata3825"><rdf:RDF><cc:Work
       rdf:about=""><dc:format>image/svg+xml</dc:format><dc:type
         rdf:resource="http://purl.org/dc/dcmitype/StillImage" /></cc:Work></rdf:RDF></metadata><defs
   id="defs3823" /><sodipodi:namedview
   pagecolor="#ffffff"
   bordercolor="#666666"
   borderopacity="1"
   objecttolerance="10"
   gridtolerance="10"
   guidetolerance="10"
   inkscape:pageopacity="0"
   inkscape:pageshadow="2"
   inkscape:window-width="1920"
   inkscape:window-height="1017"
   id="namedview3821"
   showgrid="false"
   inkscape:zoom="11.313709"
   inkscape:cx="96.551001"
   inkscape:cy="31.215116"
   inkscape:window-x="-8"
   inkscape:window-y="-8"
   inkscape:window-maximized="1"
   inkscape:current-layer="Layer_1" />
<style
   type="text/css"
   id="style3770">
	.st0{fill-rule:evenodd;clip-rule:evenodd;fill:#0B53A1;}
	.st1{fill:#0B53A1;}
</style>
<g
   id="g3818">
	<path
   class="st0"
   d="M23.4,36.7v-18L3.9,41C8.5,47.5,16,51.7,24.5,51.7c0.1,0,0.1,0,0.2,0c10.2-0.1,19-6.3,22.9-15.1H24.7H23.4z"
   id="path3772" />
	<path
   class="st0"
   d="M26,17L26,34l19.6-21.5C41.1,5.7,33.4,1.2,24.7,1.2c-0.1,0-0.1,0-0.2,0C14,1.2,4.9,7.7,1.1,17L26,17z"
   id="path3774" />
	<path
   class="st0"
   d="M62.1,9.9c-2.1,0-3.3,0.9-4.2,2c-0.9,1.1-1.6,2.6-1.6,4.7c0,6.9,0,14,0,20.9l8.1,0L64.5,27l18.2,0v-6.7   l-18.4,0.1c-0.1-1.6-0.1-3,1-3.6c1.4-0.7,4.1-0.5,6.8-0.5c3.5,0,7.6,0,10.7,0l0-6.4C77.7,9.9,67.2,9.9,62.1,9.9z"
   id="path3776" />
	<polygon
   class="st0"
   points="115.4,9.9 107.5,9.9 100.9,19.4 94.3,9.8 86,9.8 95.5,23.4 86,37.5 93.8,37.6 100.8,27.5 107.7,37.6    115.9,37.6 106.1,23.5  "
   id="polygon3778" />
	<path
   class="st0"
   d="M140,9.9h-17.8c-3,0-5.4,2.4-5.4,5.5v16.8c0,3,2.4,5.4,5.4,5.4H140c3,0,5.4-2.5,5.4-5.4v-4.1h-6.7v0.3   c0,1.6-1.2,2.9-2.7,2.9h-9.1c-1.5,0-2.8-1.3-2.8-2.9v-9c0-1.6,1.2-2.9,2.8-2.9h9.1c1.4,0,2.5,1.1,2.7,2.5h6.7v-3.7   C145.4,12.3,142.9,9.9,140,9.9z"
   id="path3780" />
	<path
   class="st0"
   d="M181,9.9h-5.5H155c-3.2,0-5.7,3.4-5.7,7.6v20.2h7.9V32h0V19.6c0-1.8,1.8-3.4,3.9-3.4h2.1c0.4,0,0.7,0,1,0.1V32   h0v5.7h7.7V16.4c0.3-0.1,0.7-0.1,1-0.1h2.1c0.1,0,0.2,0,0.4,0c1.9,0.2,3.5,1.6,3.5,3.4v18h7.7V17.5C186.8,13.3,184.2,9.9,181,9.9z"
   id="path3782" />
	<g
   id="g3816">
		<path
   class="st1"
   d="M60.5,50H58l-0.6,1.7h-0.9l2.4-6.7h0.8l2.4,6.7h-0.9L60.5,50z M58.3,49.2h2l-1-2.9h0L58.3,49.2z"
   id="path3784" />
		<path
   class="st1"
   d="M70.1,51h3.2v0.7h-4.1v-6.7h0.9V51z"
   id="path3786" />
		<path
   class="st1"
   d="M79.9,48.6h-2.7V51h3.2v0.7h-4.1v-6.7h4.1v0.7h-3.1v2.2h2.7V48.6z"
   id="path3788" />
		<path
   class="st1"
   d="M88.3,45.1v4.4c0,0.7-0.2,1.3-0.7,1.7s-1.1,0.6-1.8,0.6c-0.7,0-1.3-0.2-1.8-0.6c-0.5-0.4-0.7-1-0.7-1.7v-4.4    h0.9v4.4c0,0.5,0.1,0.9,0.4,1.2c0.3,0.3,0.7,0.4,1.1,0.4c0.5,0,0.9-0.1,1.2-0.4c0.3-0.3,0.5-0.7,0.5-1.2v-4.4H88.3z"
   id="path3790" />
		<path
   class="st1"
   d="M96.4,49.6L96.4,49.6c0,0.7-0.2,1.2-0.6,1.6c-0.5,0.4-1,0.6-1.8,0.6c-0.8,0-1.4-0.3-1.8-0.8    c-0.5-0.5-0.7-1.2-0.7-2v-1.2c0-0.8,0.2-1.5,0.7-2c0.5-0.5,1.1-0.8,1.8-0.8c0.8,0,1.4,0.2,1.8,0.6c0.4,0.4,0.7,0.9,0.6,1.6l0,0    h-0.9c0-0.5-0.1-0.8-0.4-1.1c-0.3-0.3-0.7-0.4-1.2-0.4c-0.5,0-0.9,0.2-1.2,0.6c-0.3,0.4-0.4,0.9-0.4,1.5V49c0,0.6,0.1,1.1,0.4,1.5    c0.3,0.4,0.7,0.6,1.2,0.6c0.5,0,0.9-0.1,1.2-0.4c0.3-0.3,0.4-0.6,0.4-1.1H96.4z"
   id="path3792" />
		<path
   class="st1"
   d="M102.9,50h-2.5l-0.6,1.7h-0.9l2.4-6.7h0.8l2.4,6.7h-0.9L102.9,50z M100.6,49.2h2l-1-2.9h0L100.6,49.2z"
   id="path3794" />
		<path
   class="st1"
   d="M107.3,51.7v-6.7h2.1c0.9,0,1.6,0.3,2.1,0.8c0.5,0.5,0.8,1.2,0.8,2.1v0.9c0,0.9-0.3,1.5-0.8,2.1    c-0.5,0.5-1.2,0.8-2.1,0.8H107.3z M108.2,45.8V51h1.2c0.6,0,1.1-0.2,1.5-0.6c0.4-0.4,0.5-0.9,0.5-1.6v-0.9c0-0.6-0.2-1.1-0.5-1.6    c-0.4-0.4-0.8-0.6-1.5-0.6H108.2z"
   id="path3796" />
		<path
   class="st1"
   d="M116.6,51.7h-0.9v-6.7h0.9V51.7z"
   id="path3798" />
		<path
   class="st1"
   d="M123.6,50h-2.5l-0.6,1.7h-0.9l2.4-6.7h0.8l2.4,6.7h-0.9L123.6,50z M121.4,49.2h2l-1-2.9h0L121.4,49.2z"
   id="path3800" />
		<path
   class="st1"
   d="M137,49.6L137,49.6c0,0.7-0.2,1.2-0.6,1.6c-0.5,0.4-1,0.6-1.8,0.6c-0.8,0-1.4-0.3-1.8-0.8    c-0.5-0.5-0.7-1.2-0.7-2v-1.2c0-0.8,0.2-1.5,0.7-2c0.5-0.5,1.1-0.8,1.8-0.8s1.4,0.2,1.8,0.6c0.4,0.4,0.7,0.9,0.7,1.6l0,0h-0.9    c0-0.5-0.1-0.8-0.4-1.1c-0.3-0.3-0.7-0.4-1.2-0.4c-0.5,0-0.9,0.2-1.2,0.6c-0.3,0.4-0.4,0.9-0.4,1.5V49c0,0.6,0.1,1.1,0.4,1.5    c0.3,0.4,0.7,0.6,1.2,0.6c0.5,0,0.9-0.1,1.2-0.4c0.3-0.3,0.4-0.6,0.4-1.1H137z"
   id="path3802" />
		<path
   class="st1"
   d="M145.2,49c0,0.8-0.3,1.5-0.8,2c-0.5,0.5-1.2,0.8-2,0.8c-0.8,0-1.4-0.3-1.9-0.8c-0.5-0.5-0.7-1.2-0.7-2v-1.2    c0-0.8,0.2-1.5,0.7-2c0.5-0.5,1.1-0.8,1.9-0.8c0.8,0,1.5,0.3,2,0.8c0.5,0.5,0.8,1.2,0.8,2V49z M144.3,47.8c0-0.6-0.2-1.1-0.5-1.5    c-0.3-0.4-0.8-0.6-1.3-0.6c-0.5,0-0.9,0.2-1.3,0.6s-0.5,0.9-0.5,1.5V49c0,0.6,0.2,1.1,0.5,1.5s0.7,0.6,1.3,0.6    c0.6,0,1-0.2,1.3-0.6c0.3-0.4,0.5-0.9,0.5-1.5V47.8z"
   id="path3804" />
		<path
   class="st1"
   d="M151.7,50.5L151.7,50.5l2.2-5.4h1.1v6.7h-0.9v-5l0,0l-2,5h-0.6l-2.1-5.2l0,0v5.2h-0.9v-6.7h1.2L151.7,50.5z"
   id="path3806" />
		<path
   class="st1"
   d="M159.4,49v2.7h-0.9v-6.7h2.5c0.7,0,1.3,0.2,1.7,0.5s0.6,0.8,0.6,1.4c0,0.6-0.2,1.1-0.6,1.4    c-0.4,0.4-0.9,0.5-1.7,0.5H159.4z M159.4,48.3h1.6c0.5,0,0.8-0.1,1-0.4c0.2-0.2,0.3-0.5,0.3-0.9s-0.1-0.7-0.3-0.9    c-0.2-0.2-0.6-0.4-1-0.4h-1.6V48.3z"
   id="path3808" />
		<path
   class="st1"
   d="M169.2,50h-2.5l-0.6,1.7h-0.9l2.4-6.7h0.8l2.4,6.7h-0.9L169.2,50z M166.9,49.2h2l-1-2.9h0L166.9,49.2z"
   id="path3810" />
		<path
   class="st1"
   d="M178.6,51.7h-0.9l-3.2-5.1l0,0v5.1h-0.9v-6.7h0.9l3.2,5.1l0,0v-5.1h0.9V51.7z"
   id="path3812" />
		<path
   class="st1"
   d="M184.1,48.4l1.7-3.4h1l-2.3,4.3v2.3h-0.9v-2.4l-2.3-4.2h1L184.1,48.4z"
   id="path3814" />
	</g>
</g>
</svg>